<mxfile host="app.diagrams.net" modified="2023-05-13T17:31:24.401Z" agent="Mozilla/5.0 (Windows NT 10.0; Win64; x64) AppleWebKit/537.36 (KHTML, like Gecko) Chrome/113.0.0.0 Safari/537.36 Edg/113.0.1774.35" etag="hzI3RWsNzwnuFKp83TwL" version="21.2.9" type="device">
  <diagram name="Page-1" id="R2PDrxdQ1mhhKWqaIksi">
    <mxGraphModel dx="1331" dy="756" grid="1" gridSize="10" guides="1" tooltips="1" connect="1" arrows="1" fold="1" page="1" pageScale="1" pageWidth="827" pageHeight="1169" math="0" shadow="0">
      <root>
        <mxCell id="0" />
        <mxCell id="1" parent="0" />
        <mxCell id="FfAWD8UeeB69dAOk08Cy-68" value="" style="endArrow=none;html=1;rounded=0;strokeWidth=2;entryX=-0.007;entryY=0.39;entryDx=0;entryDy=0;entryPerimeter=0;" parent="1" edge="1">
          <mxGeometry width="50" height="50" relative="1" as="geometry">
            <mxPoint x="550" y="443" as="sourcePoint" />
            <mxPoint x="649.79" y="443.5999999999999" as="targetPoint" />
          </mxGeometry>
        </mxCell>
        <mxCell id="FfAWD8UeeB69dAOk08Cy-56" value="" style="endArrow=none;html=1;rounded=0;strokeWidth=2;exitX=1;exitY=0.5;exitDx=0;exitDy=0;exitPerimeter=0;entryX=-0.003;entryY=0.873;entryDx=0;entryDy=0;entryPerimeter=0;" parent="1" source="FfAWD8UeeB69dAOk08Cy-46" edge="1" target="FfAWD8UeeB69dAOk08Cy-4">
          <mxGeometry width="50" height="50" relative="1" as="geometry">
            <mxPoint x="635" y="289.30999999999995" as="sourcePoint" />
            <mxPoint x="630" y="295" as="targetPoint" />
          </mxGeometry>
        </mxCell>
        <mxCell id="FfAWD8UeeB69dAOk08Cy-53" value="" style="endArrow=none;html=1;rounded=0;strokeWidth=2;" parent="1" edge="1">
          <mxGeometry width="50" height="50" relative="1" as="geometry">
            <mxPoint x="570" y="300" as="sourcePoint" />
            <mxPoint x="600" y="300" as="targetPoint" />
          </mxGeometry>
        </mxCell>
        <mxCell id="FfAWD8UeeB69dAOk08Cy-54" value="" style="endArrow=none;html=1;rounded=0;strokeWidth=2;" parent="1" edge="1">
          <mxGeometry width="50" height="50" relative="1" as="geometry">
            <mxPoint x="570" y="287.5" as="sourcePoint" />
            <mxPoint x="600" y="287.84" as="targetPoint" />
          </mxGeometry>
        </mxCell>
        <mxCell id="FfAWD8UeeB69dAOk08Cy-52" value="" style="endArrow=none;html=1;rounded=0;strokeWidth=2;exitX=0.987;exitY=0.591;exitDx=0;exitDy=0;exitPerimeter=0;" parent="1" edge="1">
          <mxGeometry width="50" height="50" relative="1" as="geometry">
            <mxPoint x="569.74" y="310.854" as="sourcePoint" />
            <mxPoint x="600" y="311" as="targetPoint" />
          </mxGeometry>
        </mxCell>
        <mxCell id="FfAWD8UeeB69dAOk08Cy-1" value="" style="rounded=0;whiteSpace=wrap;html=1;" parent="1" vertex="1">
          <mxGeometry x="130" y="200" width="80" height="120" as="geometry" />
        </mxCell>
        <mxCell id="FfAWD8UeeB69dAOk08Cy-2" value="" style="rounded=0;whiteSpace=wrap;html=1;" parent="1" vertex="1">
          <mxGeometry x="420" y="220" width="80" height="120" as="geometry" />
        </mxCell>
        <mxCell id="FfAWD8UeeB69dAOk08Cy-3" value="" style="rounded=0;whiteSpace=wrap;html=1;" parent="1" vertex="1">
          <mxGeometry x="370" y="200" width="80" height="120" as="geometry" />
        </mxCell>
        <mxCell id="5RwMvg_xWtixHcQHssWJ-29" style="edgeStyle=orthogonalEdgeStyle;rounded=0;orthogonalLoop=1;jettySize=auto;html=1;exitX=1;exitY=0.75;exitDx=0;exitDy=0;endArrow=none;endFill=0;" edge="1" parent="1">
          <mxGeometry relative="1" as="geometry">
            <mxPoint x="830" y="303" as="targetPoint" />
            <mxPoint x="730" y="303" as="sourcePoint" />
          </mxGeometry>
        </mxCell>
        <mxCell id="FfAWD8UeeB69dAOk08Cy-4" value="" style="rounded=0;whiteSpace=wrap;html=1;" parent="1" vertex="1">
          <mxGeometry x="650" y="200" width="80" height="120" as="geometry" />
        </mxCell>
        <mxCell id="FfAWD8UeeB69dAOk08Cy-6" value="" style="strokeWidth=2;html=1;shape=mxgraph.flowchart.annotation_1;align=left;pointerEvents=1;" parent="1" vertex="1">
          <mxGeometry x="50" y="80" width="20" height="210" as="geometry" />
        </mxCell>
        <mxCell id="FfAWD8UeeB69dAOk08Cy-8" value="" style="endArrow=none;html=1;rounded=0;strokeWidth=2;" parent="1" edge="1">
          <mxGeometry width="50" height="50" relative="1" as="geometry">
            <mxPoint x="40" y="120" as="sourcePoint" />
            <mxPoint x="760" y="120" as="targetPoint" />
          </mxGeometry>
        </mxCell>
        <mxCell id="FfAWD8UeeB69dAOk08Cy-10" value="" style="endArrow=none;html=1;rounded=0;strokeWidth=2;" parent="1" edge="1">
          <mxGeometry width="50" height="50" relative="1" as="geometry">
            <mxPoint x="40" y="80" as="sourcePoint" />
            <mxPoint x="780" y="80" as="targetPoint" />
          </mxGeometry>
        </mxCell>
        <mxCell id="FfAWD8UeeB69dAOk08Cy-12" value="" style="endArrow=none;html=1;rounded=0;entryX=0.5;entryY=0;entryDx=0;entryDy=0;" parent="1" target="FfAWD8UeeB69dAOk08Cy-3" edge="1">
          <mxGeometry width="50" height="50" relative="1" as="geometry">
            <mxPoint x="410" y="120" as="sourcePoint" />
            <mxPoint x="310" y="190" as="targetPoint" />
          </mxGeometry>
        </mxCell>
        <mxCell id="FfAWD8UeeB69dAOk08Cy-13" value="" style="endArrow=none;html=1;rounded=0;entryX=0.5;entryY=0;entryDx=0;entryDy=0;" parent="1" edge="1">
          <mxGeometry width="50" height="50" relative="1" as="geometry">
            <mxPoint x="470" y="120" as="sourcePoint" />
            <mxPoint x="470" y="220" as="targetPoint" />
          </mxGeometry>
        </mxCell>
        <mxCell id="FfAWD8UeeB69dAOk08Cy-16" value="" style="strokeWidth=2;html=1;shape=mxgraph.flowchart.annotation_1;align=left;pointerEvents=1;" parent="1" vertex="1">
          <mxGeometry x="260" y="80" width="20" height="220" as="geometry" />
        </mxCell>
        <mxCell id="FfAWD8UeeB69dAOk08Cy-19" value="" style="endArrow=none;html=1;rounded=0;entryX=0.5;entryY=0;entryDx=0;entryDy=0;" parent="1" edge="1" target="FfAWD8UeeB69dAOk08Cy-4">
          <mxGeometry width="50" height="50" relative="1" as="geometry">
            <mxPoint x="690" y="120" as="sourcePoint" />
            <mxPoint x="679.29" y="200" as="targetPoint" />
          </mxGeometry>
        </mxCell>
        <mxCell id="FfAWD8UeeB69dAOk08Cy-20" value="" style="endArrow=none;html=1;rounded=0;entryX=0.5;entryY=0;entryDx=0;entryDy=0;strokeWidth=2;" parent="1" target="5RwMvg_xWtixHcQHssWJ-24" edge="1">
          <mxGeometry width="50" height="50" relative="1" as="geometry">
            <mxPoint x="760" y="120" as="sourcePoint" />
            <mxPoint x="760" y="360.0000000000001" as="targetPoint" />
          </mxGeometry>
        </mxCell>
        <mxCell id="FfAWD8UeeB69dAOk08Cy-21" value="" style="endArrow=none;html=1;rounded=0;" parent="1" edge="1">
          <mxGeometry width="50" height="50" relative="1" as="geometry">
            <mxPoint x="160.29000000000002" y="120" as="sourcePoint" />
            <mxPoint x="160" y="200" as="targetPoint" />
          </mxGeometry>
        </mxCell>
        <mxCell id="FfAWD8UeeB69dAOk08Cy-23" value="" style="endArrow=none;html=1;rounded=0;strokeWidth=2;exitX=0.5;exitY=0;exitDx=0;exitDy=0;exitPerimeter=0;entryX=0;entryY=0.5;entryDx=0;entryDy=0;" parent="1" source="FfAWD8UeeB69dAOk08Cy-27" edge="1" target="OPhM1rb45kpCFRoYdec_-35">
          <mxGeometry width="50" height="50" relative="1" as="geometry">
            <mxPoint x="80" y="240" as="sourcePoint" />
            <mxPoint x="120" y="240" as="targetPoint" />
          </mxGeometry>
        </mxCell>
        <mxCell id="FfAWD8UeeB69dAOk08Cy-26" value="" style="endArrow=none;html=1;rounded=0;strokeWidth=2;entryX=-0.006;entryY=0.665;entryDx=0;entryDy=0;entryPerimeter=0;" parent="1" source="5RwMvg_xWtixHcQHssWJ-45" edge="1" target="FfAWD8UeeB69dAOk08Cy-1">
          <mxGeometry width="50" height="50" relative="1" as="geometry">
            <mxPoint x="100" y="279.29" as="sourcePoint" />
            <mxPoint x="120" y="279" as="targetPoint" />
            <Array as="points" />
          </mxGeometry>
        </mxCell>
        <mxCell id="FfAWD8UeeB69dAOk08Cy-27" value="" style="strokeWidth=2;html=1;shape=mxgraph.flowchart.annotation_1;align=left;pointerEvents=1;" parent="1" vertex="1">
          <mxGeometry x="50" y="240" height="50" as="geometry" />
        </mxCell>
        <mxCell id="FfAWD8UeeB69dAOk08Cy-28" value="" style="endArrow=none;html=1;rounded=0;strokeWidth=2;exitX=0.121;exitY=0.737;exitDx=0;exitDy=0;exitPerimeter=0;" parent="1" source="FfAWD8UeeB69dAOk08Cy-24" edge="1">
          <mxGeometry width="50" height="50" relative="1" as="geometry">
            <mxPoint x="80" y="430" as="sourcePoint" />
            <mxPoint x="90" y="277" as="targetPoint" />
            <Array as="points" />
          </mxGeometry>
        </mxCell>
        <mxCell id="FfAWD8UeeB69dAOk08Cy-30" value="" style="endArrow=none;html=1;rounded=0;strokeWidth=2;" parent="1" source="FfAWD8UeeB69dAOk08Cy-34" target="FfAWD8UeeB69dAOk08Cy-24" edge="1">
          <mxGeometry width="50" height="50" relative="1" as="geometry">
            <mxPoint x="100" y="279.29" as="sourcePoint" />
            <mxPoint x="120" y="279" as="targetPoint" />
            <Array as="points" />
          </mxGeometry>
        </mxCell>
        <mxCell id="FfAWD8UeeB69dAOk08Cy-31" value="" style="endArrow=none;html=1;rounded=0;strokeWidth=2;exitX=0;exitY=0.703;exitDx=0;exitDy=0;exitPerimeter=0;entryX=0;entryY=0.5;entryDx=0;entryDy=0;" parent="1" source="FfAWD8UeeB69dAOk08Cy-27" target="FfAWD8UeeB69dAOk08Cy-33" edge="1">
          <mxGeometry width="50" height="50" relative="1" as="geometry">
            <mxPoint x="62" y="277" as="sourcePoint" />
            <mxPoint x="90" y="277" as="targetPoint" />
            <Array as="points" />
          </mxGeometry>
        </mxCell>
        <mxCell id="FfAWD8UeeB69dAOk08Cy-24" value="" style="shape=or;whiteSpace=wrap;html=1;" parent="1" vertex="1">
          <mxGeometry x="70" y="260" width="30" height="40" as="geometry" />
        </mxCell>
        <mxCell id="FfAWD8UeeB69dAOk08Cy-32" value="" style="ellipse;whiteSpace=wrap;html=1;aspect=fixed;" parent="1" vertex="1">
          <mxGeometry x="60" y="285" width="10" height="10" as="geometry" />
        </mxCell>
        <mxCell id="FfAWD8UeeB69dAOk08Cy-33" value="" style="ellipse;whiteSpace=wrap;html=1;aspect=fixed;" parent="1" vertex="1">
          <mxGeometry x="60" y="270" width="10" height="10" as="geometry" />
        </mxCell>
        <mxCell id="FfAWD8UeeB69dAOk08Cy-35" value="" style="endArrow=none;html=1;rounded=0;strokeWidth=2;" parent="1" target="FfAWD8UeeB69dAOk08Cy-34" edge="1">
          <mxGeometry width="50" height="50" relative="1" as="geometry">
            <mxPoint x="100" y="279.29" as="sourcePoint" />
            <mxPoint x="100" y="279" as="targetPoint" />
            <Array as="points" />
          </mxGeometry>
        </mxCell>
        <mxCell id="FfAWD8UeeB69dAOk08Cy-37" value="" style="shape=or;whiteSpace=wrap;html=1;" parent="1" vertex="1">
          <mxGeometry x="280" y="272" width="30" height="40" as="geometry" />
        </mxCell>
        <mxCell id="FfAWD8UeeB69dAOk08Cy-38" value="" style="endArrow=none;html=1;rounded=0;strokeWidth=2;" parent="1" edge="1">
          <mxGeometry width="50" height="50" relative="1" as="geometry">
            <mxPoint x="260" y="280" as="sourcePoint" />
            <mxPoint x="280" y="280" as="targetPoint" />
            <Array as="points">
              <mxPoint x="270" y="280" />
            </Array>
          </mxGeometry>
        </mxCell>
        <mxCell id="FfAWD8UeeB69dAOk08Cy-39" value="" style="ellipse;whiteSpace=wrap;html=1;aspect=fixed;" parent="1" vertex="1">
          <mxGeometry x="270" y="295" width="10" height="10" as="geometry" />
        </mxCell>
        <mxCell id="FfAWD8UeeB69dAOk08Cy-43" value="" style="endArrow=none;html=1;rounded=0;strokeWidth=2;exitX=1;exitY=0.5;exitDx=0;exitDy=0;exitPerimeter=0;" parent="1" source="5RwMvg_xWtixHcQHssWJ-47" edge="1">
          <mxGeometry width="50" height="50" relative="1" as="geometry">
            <mxPoint x="320" y="294.6" as="sourcePoint" />
            <mxPoint x="340" y="290" as="targetPoint" />
            <Array as="points">
              <mxPoint x="370" y="290" />
            </Array>
          </mxGeometry>
        </mxCell>
        <mxCell id="FfAWD8UeeB69dAOk08Cy-45" value="" style="endArrow=none;html=1;rounded=0;strokeWidth=2;exitX=0.5;exitY=0;exitDx=0;exitDy=0;exitPerimeter=0;" parent="1" edge="1">
          <mxGeometry width="50" height="50" relative="1" as="geometry">
            <mxPoint x="260" y="239.31" as="sourcePoint" />
            <mxPoint x="370" y="239" as="targetPoint" />
          </mxGeometry>
        </mxCell>
        <mxCell id="FfAWD8UeeB69dAOk08Cy-50" value="" style="endArrow=none;html=1;rounded=0;strokeWidth=2;entryX=0;entryY=1;entryDx=0;entryDy=0;entryPerimeter=0;exitX=0.987;exitY=0.589;exitDx=0;exitDy=0;exitPerimeter=0;" parent="1" edge="1">
          <mxGeometry width="50" height="50" relative="1" as="geometry">
            <mxPoint x="569.7399999999999" y="312.0659999999999" as="sourcePoint" />
            <mxPoint x="570" y="210" as="targetPoint" />
            <Array as="points">
              <mxPoint x="570" y="80" />
            </Array>
          </mxGeometry>
        </mxCell>
        <mxCell id="FfAWD8UeeB69dAOk08Cy-61" value="" style="endArrow=none;html=1;rounded=0;strokeWidth=2;exitX=-0.012;exitY=0.938;exitDx=0;exitDy=0;exitPerimeter=0;" parent="1" edge="1">
          <mxGeometry width="50" height="50" relative="1" as="geometry">
            <mxPoint x="549.7600000000001" y="450.572" as="sourcePoint" />
            <mxPoint x="650" y="450.9" as="targetPoint" />
          </mxGeometry>
        </mxCell>
        <mxCell id="FfAWD8UeeB69dAOk08Cy-62" value="" style="endArrow=none;html=1;rounded=0;strokeWidth=2;" parent="1" edge="1">
          <mxGeometry width="50" height="50" relative="1" as="geometry">
            <mxPoint x="550" y="434.81" as="sourcePoint" />
            <mxPoint x="650" y="434.81" as="targetPoint" />
          </mxGeometry>
        </mxCell>
        <mxCell id="FfAWD8UeeB69dAOk08Cy-63" value="" style="endArrow=none;html=1;rounded=0;strokeWidth=2;" parent="1" edge="1">
          <mxGeometry width="50" height="50" relative="1" as="geometry">
            <mxPoint x="550" y="459" as="sourcePoint" />
            <mxPoint x="657.52" y="459.15" as="targetPoint" />
          </mxGeometry>
        </mxCell>
        <mxCell id="FfAWD8UeeB69dAOk08Cy-64" value="" style="shape=or;whiteSpace=wrap;html=1;" parent="1" vertex="1">
          <mxGeometry x="650" y="420" width="30" height="60" as="geometry" />
        </mxCell>
        <mxCell id="OPhM1rb45kpCFRoYdec_-1" value="" style="endArrow=none;html=1;rounded=0;" parent="1" edge="1">
          <mxGeometry width="50" height="50" relative="1" as="geometry">
            <mxPoint x="760" y="600" as="sourcePoint" />
            <mxPoint x="40" y="600" as="targetPoint" />
          </mxGeometry>
        </mxCell>
        <mxCell id="OPhM1rb45kpCFRoYdec_-2" value="" style="endArrow=none;html=1;rounded=0;" parent="1" edge="1">
          <mxGeometry width="50" height="50" relative="1" as="geometry">
            <mxPoint x="760" y="619.57" as="sourcePoint" />
            <mxPoint x="40" y="619.57" as="targetPoint" />
          </mxGeometry>
        </mxCell>
        <mxCell id="OPhM1rb45kpCFRoYdec_-3" value="" style="endArrow=none;html=1;rounded=0;" parent="1" edge="1">
          <mxGeometry width="50" height="50" relative="1" as="geometry">
            <mxPoint x="760" y="640" as="sourcePoint" />
            <mxPoint x="40" y="640" as="targetPoint" />
          </mxGeometry>
        </mxCell>
        <mxCell id="OPhM1rb45kpCFRoYdec_-4" value="nRD" style="text;html=1;strokeColor=none;fillColor=none;align=center;verticalAlign=middle;whiteSpace=wrap;rounded=0;" parent="1" vertex="1">
          <mxGeometry y="590" width="40" height="20" as="geometry" />
        </mxCell>
        <mxCell id="OPhM1rb45kpCFRoYdec_-5" value="nWRL" style="text;html=1;strokeColor=none;fillColor=none;align=center;verticalAlign=middle;whiteSpace=wrap;rounded=0;" parent="1" vertex="1">
          <mxGeometry y="610" width="40" height="20" as="geometry" />
        </mxCell>
        <mxCell id="OPhM1rb45kpCFRoYdec_-6" value="nWRH" style="text;html=1;strokeColor=none;fillColor=none;align=center;verticalAlign=middle;whiteSpace=wrap;rounded=0;" parent="1" vertex="1">
          <mxGeometry y="630" width="40" height="20" as="geometry" />
        </mxCell>
        <mxCell id="OPhM1rb45kpCFRoYdec_-8" value="&lt;p class=&quot;MsoNormal&quot;&gt;D&lt;sub&gt;0-15&lt;/sub&gt;&lt;/p&gt;" style="text;html=1;strokeColor=none;fillColor=none;align=center;verticalAlign=middle;whiteSpace=wrap;rounded=0;" parent="1" vertex="1">
          <mxGeometry y="110" width="40" height="20" as="geometry" />
        </mxCell>
        <mxCell id="OPhM1rb45kpCFRoYdec_-9" value="&lt;p class=&quot;MsoNormal&quot;&gt;&lt;sub&gt;&lt;span style=&quot;font-size: 12px;&quot;&gt;A&lt;/span&gt;0-15&lt;/sub&gt;&lt;/p&gt;" style="text;html=1;strokeColor=none;fillColor=none;align=center;verticalAlign=middle;whiteSpace=wrap;rounded=0;" parent="1" vertex="1">
          <mxGeometry y="70" width="40" height="20" as="geometry" />
        </mxCell>
        <mxCell id="OPhM1rb45kpCFRoYdec_-10" value="" style="endArrow=none;html=1;rounded=0;" parent="1" edge="1">
          <mxGeometry width="50" height="50" relative="1" as="geometry">
            <mxPoint x="80" y="600" as="sourcePoint" />
            <mxPoint x="80" y="310" as="targetPoint" />
          </mxGeometry>
        </mxCell>
        <mxCell id="OPhM1rb45kpCFRoYdec_-11" value="" style="endArrow=none;html=1;rounded=0;" parent="1" source="OPhM1rb45kpCFRoYdec_-12" edge="1">
          <mxGeometry width="50" height="50" relative="1" as="geometry">
            <mxPoint x="80" y="310" as="sourcePoint" />
            <mxPoint x="120" y="310" as="targetPoint" />
          </mxGeometry>
        </mxCell>
        <mxCell id="OPhM1rb45kpCFRoYdec_-13" value="" style="endArrow=none;html=1;rounded=0;" parent="1" target="OPhM1rb45kpCFRoYdec_-12" edge="1">
          <mxGeometry width="50" height="50" relative="1" as="geometry">
            <mxPoint x="80" y="310" as="sourcePoint" />
            <mxPoint x="120" y="310" as="targetPoint" />
          </mxGeometry>
        </mxCell>
        <mxCell id="OPhM1rb45kpCFRoYdec_-12" value="" style="ellipse;whiteSpace=wrap;html=1;aspect=fixed;" parent="1" vertex="1">
          <mxGeometry x="120" y="305" width="10" height="10" as="geometry" />
        </mxCell>
        <mxCell id="OPhM1rb45kpCFRoYdec_-14" value="" style="endArrow=none;html=1;rounded=0;" parent="1" source="OPhM1rb45kpCFRoYdec_-25" edge="1">
          <mxGeometry width="50" height="50" relative="1" as="geometry">
            <mxPoint x="410" y="620" as="sourcePoint" />
            <mxPoint x="409.57" y="320" as="targetPoint" />
          </mxGeometry>
        </mxCell>
        <mxCell id="OPhM1rb45kpCFRoYdec_-15" value="" style="endArrow=none;html=1;rounded=0;" parent="1" source="OPhM1rb45kpCFRoYdec_-27" edge="1">
          <mxGeometry width="50" height="50" relative="1" as="geometry">
            <mxPoint x="464" y="640" as="sourcePoint" />
            <mxPoint x="464" y="340" as="targetPoint" />
          </mxGeometry>
        </mxCell>
        <mxCell id="OPhM1rb45kpCFRoYdec_-17" value="&lt;sub&gt;0-7&lt;/sub&gt;" style="text;html=1;strokeColor=none;fillColor=none;align=center;verticalAlign=middle;whiteSpace=wrap;rounded=0;" parent="1" vertex="1">
          <mxGeometry x="414" y="185" width="30" height="10" as="geometry" />
        </mxCell>
        <mxCell id="OPhM1rb45kpCFRoYdec_-18" value="&lt;sub&gt;8-15&lt;/sub&gt;" style="text;html=1;strokeColor=none;fillColor=none;align=center;verticalAlign=middle;whiteSpace=wrap;rounded=0;" parent="1" vertex="1">
          <mxGeometry x="470" y="200" width="30" height="15" as="geometry" />
        </mxCell>
        <mxCell id="OPhM1rb45kpCFRoYdec_-21" value="CS" style="text;html=1;strokeColor=none;fillColor=none;align=center;verticalAlign=middle;whiteSpace=wrap;rounded=0;" parent="1" vertex="1">
          <mxGeometry x="110" y="265" width="60" height="30" as="geometry" />
        </mxCell>
        <mxCell id="OPhM1rb45kpCFRoYdec_-22" value="OE" style="text;html=1;strokeColor=none;fillColor=none;align=center;verticalAlign=middle;whiteSpace=wrap;rounded=0;" parent="1" vertex="1">
          <mxGeometry x="110" y="295" width="60" height="30" as="geometry" />
        </mxCell>
        <mxCell id="OPhM1rb45kpCFRoYdec_-23" value="OE" style="text;html=1;strokeColor=none;fillColor=none;align=center;verticalAlign=middle;whiteSpace=wrap;rounded=0;" parent="1" vertex="1">
          <mxGeometry x="370" y="302.5" width="30" height="15" as="geometry" />
        </mxCell>
        <mxCell id="OPhM1rb45kpCFRoYdec_-24" value="CS" style="text;html=1;strokeColor=none;fillColor=none;align=center;verticalAlign=middle;whiteSpace=wrap;rounded=0;" parent="1" vertex="1">
          <mxGeometry x="365" y="282.5" width="30" height="15" as="geometry" />
        </mxCell>
        <mxCell id="OPhM1rb45kpCFRoYdec_-26" value="" style="endArrow=none;html=1;rounded=0;" parent="1" target="OPhM1rb45kpCFRoYdec_-25" edge="1">
          <mxGeometry width="50" height="50" relative="1" as="geometry">
            <mxPoint x="410" y="620" as="sourcePoint" />
            <mxPoint x="409.57" y="320" as="targetPoint" />
          </mxGeometry>
        </mxCell>
        <mxCell id="OPhM1rb45kpCFRoYdec_-25" value="" style="ellipse;whiteSpace=wrap;html=1;aspect=fixed;" parent="1" vertex="1">
          <mxGeometry x="405" y="320" width="10" height="10" as="geometry" />
        </mxCell>
        <mxCell id="OPhM1rb45kpCFRoYdec_-28" value="" style="endArrow=none;html=1;rounded=0;" parent="1" target="OPhM1rb45kpCFRoYdec_-27" edge="1">
          <mxGeometry width="50" height="50" relative="1" as="geometry">
            <mxPoint x="464" y="640" as="sourcePoint" />
            <mxPoint x="464" y="340" as="targetPoint" />
          </mxGeometry>
        </mxCell>
        <mxCell id="OPhM1rb45kpCFRoYdec_-27" value="" style="ellipse;whiteSpace=wrap;html=1;aspect=fixed;" parent="1" vertex="1">
          <mxGeometry x="460" y="340" width="10" height="10" as="geometry" />
        </mxCell>
        <mxCell id="OPhM1rb45kpCFRoYdec_-29" value="WE" style="text;html=1;strokeColor=none;fillColor=none;align=center;verticalAlign=middle;whiteSpace=wrap;rounded=0;" parent="1" vertex="1">
          <mxGeometry x="395" y="305" width="30" height="15" as="geometry" />
        </mxCell>
        <mxCell id="OPhM1rb45kpCFRoYdec_-30" value="WE" style="text;html=1;strokeColor=none;fillColor=none;align=center;verticalAlign=middle;whiteSpace=wrap;rounded=0;" parent="1" vertex="1">
          <mxGeometry x="450" y="325" width="30" height="15" as="geometry" />
        </mxCell>
        <mxCell id="OPhM1rb45kpCFRoYdec_-31" value="&lt;p class=&quot;MsoNormal&quot;&gt;D&lt;sub&gt;0-15&lt;/sub&gt;&lt;/p&gt;" style="text;html=1;strokeColor=none;fillColor=none;align=center;verticalAlign=middle;whiteSpace=wrap;rounded=0;" parent="1" vertex="1">
          <mxGeometry x="140" y="200" width="40" height="17.5" as="geometry" />
        </mxCell>
        <mxCell id="OPhM1rb45kpCFRoYdec_-32" value="&lt;p class=&quot;MsoNormal&quot;&gt;D&lt;sub&gt;0-7&lt;/sub&gt;&lt;/p&gt;" style="text;html=1;strokeColor=none;fillColor=none;align=center;verticalAlign=middle;whiteSpace=wrap;rounded=0;" parent="1" vertex="1">
          <mxGeometry x="390" y="200" width="40" height="17.5" as="geometry" />
        </mxCell>
        <mxCell id="OPhM1rb45kpCFRoYdec_-33" value="&lt;p class=&quot;MsoNormal&quot;&gt;D&lt;sub&gt;0-7&lt;/sub&gt;&lt;/p&gt;" style="text;html=1;strokeColor=none;fillColor=none;align=center;verticalAlign=middle;whiteSpace=wrap;rounded=0;" parent="1" vertex="1">
          <mxGeometry x="460" y="220" width="30" height="17.5" as="geometry" />
        </mxCell>
        <mxCell id="OPhM1rb45kpCFRoYdec_-35" value="&lt;p class=&quot;MsoNormal&quot;&gt;A&lt;sub&gt;0-12&lt;/sub&gt;&lt;/p&gt;" style="text;html=1;strokeColor=none;fillColor=none;align=center;verticalAlign=middle;whiteSpace=wrap;rounded=0;" parent="1" vertex="1">
          <mxGeometry x="130" y="230" width="40" height="20" as="geometry" />
        </mxCell>
        <mxCell id="OPhM1rb45kpCFRoYdec_-36" value="&lt;p class=&quot;MsoNormal&quot;&gt;A&lt;sub&gt;0-12&lt;/sub&gt;&lt;/p&gt;" style="text;html=1;strokeColor=none;fillColor=none;align=center;verticalAlign=middle;whiteSpace=wrap;rounded=0;" parent="1" vertex="1">
          <mxGeometry x="366" y="230" width="40" height="20" as="geometry" />
        </mxCell>
        <mxCell id="OPhM1rb45kpCFRoYdec_-37" value="&lt;b&gt;&lt;font style=&quot;font-size: 15px;&quot;&gt;#1&lt;/font&gt;&lt;/b&gt;" style="text;html=1;strokeColor=none;fillColor=none;align=center;verticalAlign=middle;whiteSpace=wrap;rounded=0;" parent="1" vertex="1">
          <mxGeometry x="150" y="250" width="60" height="30" as="geometry" />
        </mxCell>
        <mxCell id="OPhM1rb45kpCFRoYdec_-38" value="&lt;b&gt;&lt;font style=&quot;font-size: 15px;&quot;&gt;#2&lt;/font&gt;&lt;/b&gt;" style="text;html=1;strokeColor=none;fillColor=none;align=center;verticalAlign=middle;whiteSpace=wrap;rounded=0;" parent="1" vertex="1">
          <mxGeometry x="395" y="250" width="60" height="30" as="geometry" />
        </mxCell>
        <mxCell id="OPhM1rb45kpCFRoYdec_-39" value="&lt;b&gt;&lt;font style=&quot;font-size: 15px;&quot;&gt;#3&lt;/font&gt;&lt;/b&gt;" style="text;html=1;strokeColor=none;fillColor=none;align=center;verticalAlign=middle;whiteSpace=wrap;rounded=0;" parent="1" vertex="1">
          <mxGeometry x="450" y="262" width="60" height="30" as="geometry" />
        </mxCell>
        <mxCell id="OPhM1rb45kpCFRoYdec_-40" value="&lt;b&gt;&lt;font style=&quot;font-size: 15px;&quot;&gt;#4&lt;/font&gt;&lt;/b&gt;" style="text;html=1;strokeColor=none;fillColor=none;align=center;verticalAlign=middle;whiteSpace=wrap;rounded=0;" parent="1" vertex="1">
          <mxGeometry x="670" y="245" width="60" height="30" as="geometry" />
        </mxCell>
        <mxCell id="5RwMvg_xWtixHcQHssWJ-1" value="EN" style="text;html=1;strokeColor=none;fillColor=none;align=center;verticalAlign=middle;whiteSpace=wrap;rounded=0;" vertex="1" parent="1">
          <mxGeometry x="635" y="286" width="60" height="35" as="geometry" />
        </mxCell>
        <mxCell id="5RwMvg_xWtixHcQHssWJ-3" value="" style="endArrow=none;html=1;rounded=0;strokeWidth=2;" edge="1" parent="1">
          <mxGeometry width="50" height="50" relative="1" as="geometry">
            <mxPoint x="570" y="275" as="sourcePoint" />
            <mxPoint x="600" y="275.34" as="targetPoint" />
          </mxGeometry>
        </mxCell>
        <mxCell id="FfAWD8UeeB69dAOk08Cy-46" value="" style="shape=or;whiteSpace=wrap;html=1;" parent="1" vertex="1">
          <mxGeometry x="590" y="270" width="30" height="70" as="geometry" />
        </mxCell>
        <mxCell id="5RwMvg_xWtixHcQHssWJ-5" value="" style="endArrow=none;html=1;rounded=0;strokeWidth=2;exitX=-0.012;exitY=0.875;exitDx=0;exitDy=0;exitPerimeter=0;" edge="1" parent="1" target="FfAWD8UeeB69dAOk08Cy-55">
          <mxGeometry width="50" height="50" relative="1" as="geometry">
            <mxPoint x="549.7600000000001" y="424.75" as="sourcePoint" />
            <mxPoint x="600" y="265" as="targetPoint" />
            <Array as="points" />
          </mxGeometry>
        </mxCell>
        <mxCell id="FfAWD8UeeB69dAOk08Cy-55" value="" style="ellipse;whiteSpace=wrap;html=1;aspect=fixed;" parent="1" vertex="1">
          <mxGeometry x="640" y="420" width="10" height="10" as="geometry" />
        </mxCell>
        <mxCell id="5RwMvg_xWtixHcQHssWJ-6" value="A&lt;sub style=&quot;font-size: 8px;&quot;&gt;15&lt;/sub&gt;" style="text;html=1;align=center;verticalAlign=middle;resizable=0;points=[];autosize=1;strokeColor=none;fillColor=none;fontSize=8;" vertex="1" parent="1">
          <mxGeometry x="578" y="296.5" width="40" height="30" as="geometry" />
        </mxCell>
        <mxCell id="5RwMvg_xWtixHcQHssWJ-7" value="A&lt;sub style=&quot;font-size: 8px;&quot;&gt;14&lt;/sub&gt;" style="text;html=1;align=center;verticalAlign=middle;resizable=0;points=[];autosize=1;strokeColor=none;fillColor=none;fontSize=8;" vertex="1" parent="1">
          <mxGeometry x="578" y="286" width="40" height="30" as="geometry" />
        </mxCell>
        <mxCell id="5RwMvg_xWtixHcQHssWJ-8" value="A&lt;sub style=&quot;font-size: 8px;&quot;&gt;13&lt;br&gt;&lt;/sub&gt;" style="text;html=1;align=center;verticalAlign=middle;resizable=0;points=[];autosize=1;strokeColor=none;fillColor=none;fontSize=8;" vertex="1" parent="1">
          <mxGeometry x="578" y="274.5" width="40" height="30" as="geometry" />
        </mxCell>
        <mxCell id="5RwMvg_xWtixHcQHssWJ-9" value="A&lt;sub&gt;12&lt;/sub&gt;" style="text;html=1;align=center;verticalAlign=middle;resizable=0;points=[];autosize=1;strokeColor=none;fillColor=none;fontSize=8;" vertex="1" parent="1">
          <mxGeometry x="578" y="262" width="40" height="30" as="geometry" />
        </mxCell>
        <mxCell id="5RwMvg_xWtixHcQHssWJ-10" value="A&lt;sub style=&quot;font-size: 8px;&quot;&gt;11&lt;/sub&gt;" style="text;html=1;align=center;verticalAlign=middle;resizable=0;points=[];autosize=1;strokeColor=none;fillColor=none;fontSize=8;" vertex="1" parent="1">
          <mxGeometry x="638" y="412" width="40" height="30" as="geometry" />
        </mxCell>
        <mxCell id="5RwMvg_xWtixHcQHssWJ-11" value="" style="endArrow=none;html=1;rounded=0;strokeWidth=2;" edge="1" parent="1">
          <mxGeometry width="50" height="50" relative="1" as="geometry">
            <mxPoint x="550" y="460" as="sourcePoint" />
            <mxPoint x="550" y="80" as="targetPoint" />
          </mxGeometry>
        </mxCell>
        <mxCell id="5RwMvg_xWtixHcQHssWJ-12" value="A&lt;sub style=&quot;font-size: 8px;&quot;&gt;12&lt;/sub&gt;" style="text;html=1;align=center;verticalAlign=middle;resizable=0;points=[];autosize=1;strokeColor=none;fillColor=none;fontSize=8;" vertex="1" parent="1">
          <mxGeometry x="638" y="420" width="40" height="30" as="geometry" />
        </mxCell>
        <mxCell id="5RwMvg_xWtixHcQHssWJ-13" value="A&lt;sub style=&quot;font-size: 8px;&quot;&gt;13&lt;/sub&gt;" style="text;html=1;align=center;verticalAlign=middle;resizable=0;points=[];autosize=1;strokeColor=none;fillColor=none;fontSize=8;" vertex="1" parent="1">
          <mxGeometry x="638" y="429" width="40" height="30" as="geometry" />
        </mxCell>
        <mxCell id="5RwMvg_xWtixHcQHssWJ-14" value="A&lt;sub style=&quot;font-size: 8px;&quot;&gt;14&lt;/sub&gt;" style="text;html=1;align=center;verticalAlign=middle;resizable=0;points=[];autosize=1;strokeColor=none;fillColor=none;fontSize=8;" vertex="1" parent="1">
          <mxGeometry x="638" y="438" width="40" height="30" as="geometry" />
        </mxCell>
        <mxCell id="5RwMvg_xWtixHcQHssWJ-15" value="A&lt;sub style=&quot;font-size: 8px;&quot;&gt;15&lt;/sub&gt;" style="text;html=1;align=center;verticalAlign=middle;resizable=0;points=[];autosize=1;strokeColor=none;fillColor=none;fontSize=8;" vertex="1" parent="1">
          <mxGeometry x="638" y="448" width="40" height="30" as="geometry" />
        </mxCell>
        <mxCell id="5RwMvg_xWtixHcQHssWJ-18" value="" style="endArrow=none;html=1;rounded=0;strokeWidth=2;" edge="1" parent="1">
          <mxGeometry width="50" height="50" relative="1" as="geometry">
            <mxPoint x="680" y="449.89" as="sourcePoint" />
            <mxPoint x="680" y="450" as="targetPoint" />
          </mxGeometry>
        </mxCell>
        <mxCell id="5RwMvg_xWtixHcQHssWJ-20" value="" style="endArrow=none;html=1;rounded=0;strokeWidth=2;entryX=0.5;entryY=1;entryDx=0;entryDy=0;" edge="1" parent="1" target="5RwMvg_xWtixHcQHssWJ-25">
          <mxGeometry width="50" height="50" relative="1" as="geometry">
            <mxPoint x="739" y="450" as="sourcePoint" />
            <mxPoint x="717.5" y="449.89" as="targetPoint" />
          </mxGeometry>
        </mxCell>
        <mxCell id="5RwMvg_xWtixHcQHssWJ-21" value="" style="ellipse;whiteSpace=wrap;html=1;aspect=fixed;" vertex="1" parent="1">
          <mxGeometry x="620" y="300" width="10" height="10" as="geometry" />
        </mxCell>
        <mxCell id="5RwMvg_xWtixHcQHssWJ-23" value="D&lt;sub&gt;0-7&lt;/sub&gt;" style="text;html=1;align=center;verticalAlign=middle;resizable=0;points=[];autosize=1;strokeColor=none;fillColor=none;" vertex="1" parent="1">
          <mxGeometry x="665" y="195" width="50" height="30" as="geometry" />
        </mxCell>
        <mxCell id="5RwMvg_xWtixHcQHssWJ-27" style="edgeStyle=orthogonalEdgeStyle;rounded=0;orthogonalLoop=1;jettySize=auto;html=1;exitX=0.95;exitY=0.5;exitDx=0;exitDy=0;endArrow=none;endFill=0;strokeWidth=2;exitPerimeter=0;" edge="1" parent="1" source="5RwMvg_xWtixHcQHssWJ-25">
          <mxGeometry relative="1" as="geometry">
            <mxPoint x="800" y="520" as="targetPoint" />
            <Array as="points">
              <mxPoint x="760" y="520" />
            </Array>
          </mxGeometry>
        </mxCell>
        <mxCell id="5RwMvg_xWtixHcQHssWJ-25" value="" style="triangle;whiteSpace=wrap;html=1;direction=north;" vertex="1" parent="1">
          <mxGeometry x="720" y="420" width="80" height="60" as="geometry" />
        </mxCell>
        <mxCell id="5RwMvg_xWtixHcQHssWJ-24" value="Porto Entrada" style="text;html=1;strokeColor=none;fillColor=none;align=center;verticalAlign=middle;whiteSpace=wrap;rounded=0;" vertex="1" parent="1">
          <mxGeometry x="730" y="445" width="60" height="30" as="geometry" />
        </mxCell>
        <mxCell id="5RwMvg_xWtixHcQHssWJ-26" value="" style="endArrow=none;html=1;rounded=0;strokeWidth=2;entryX=0.5;entryY=0;entryDx=0;entryDy=0;" edge="1" parent="1" target="5RwMvg_xWtixHcQHssWJ-25">
          <mxGeometry width="50" height="50" relative="1" as="geometry">
            <mxPoint x="680" y="450" as="sourcePoint" />
            <mxPoint x="729" y="450" as="targetPoint" />
          </mxGeometry>
        </mxCell>
        <mxCell id="5RwMvg_xWtixHcQHssWJ-28" value="EN" style="text;html=1;align=center;verticalAlign=middle;resizable=0;points=[];autosize=1;strokeColor=none;fillColor=none;" vertex="1" parent="1">
          <mxGeometry x="710" y="429" width="40" height="30" as="geometry" />
        </mxCell>
        <mxCell id="5RwMvg_xWtixHcQHssWJ-30" value="Q&lt;sub&gt;0-7&lt;/sub&gt;" style="text;html=1;align=center;verticalAlign=middle;resizable=0;points=[];autosize=1;strokeColor=none;fillColor=none;" vertex="1" parent="1">
          <mxGeometry x="690" y="288" width="50" height="30" as="geometry" />
        </mxCell>
        <mxCell id="5RwMvg_xWtixHcQHssWJ-32" value="D&lt;sub&gt;0-7&lt;/sub&gt;" style="text;html=1;align=center;verticalAlign=middle;resizable=0;points=[];autosize=1;strokeColor=none;fillColor=none;" vertex="1" parent="1">
          <mxGeometry x="750" y="390" width="50" height="30" as="geometry" />
        </mxCell>
        <mxCell id="5RwMvg_xWtixHcQHssWJ-33" value="" style="endArrow=none;html=1;rounded=0;" edge="1" parent="1">
          <mxGeometry width="50" height="50" relative="1" as="geometry">
            <mxPoint x="600" y="600" as="sourcePoint" />
            <mxPoint x="650" y="470" as="targetPoint" />
            <Array as="points">
              <mxPoint x="600" y="470" />
            </Array>
          </mxGeometry>
        </mxCell>
        <mxCell id="5RwMvg_xWtixHcQHssWJ-34" value="" style="endArrow=none;html=1;rounded=0;entryX=0;entryY=0.75;entryDx=0;entryDy=0;entryPerimeter=0;" edge="1" parent="1" target="FfAWD8UeeB69dAOk08Cy-46">
          <mxGeometry width="50" height="50" relative="1" as="geometry">
            <mxPoint x="520" y="620" as="sourcePoint" />
            <mxPoint x="380" y="460" as="targetPoint" />
            <Array as="points">
              <mxPoint x="520" y="323" />
            </Array>
          </mxGeometry>
        </mxCell>
        <mxCell id="5RwMvg_xWtixHcQHssWJ-35" value="nWRL" style="text;html=1;align=center;verticalAlign=middle;resizable=0;points=[];autosize=1;strokeColor=none;fillColor=none;fontSize=8;" vertex="1" parent="1">
          <mxGeometry x="578" y="312" width="50" height="20" as="geometry" />
        </mxCell>
        <mxCell id="5RwMvg_xWtixHcQHssWJ-36" value="&lt;font style=&quot;font-size: 8px;&quot;&gt;nRD&lt;/font&gt;" style="text;html=1;align=center;verticalAlign=middle;resizable=0;points=[];autosize=1;strokeColor=none;fillColor=none;" vertex="1" parent="1">
          <mxGeometry x="639" y="455" width="40" height="30" as="geometry" />
        </mxCell>
        <mxCell id="5RwMvg_xWtixHcQHssWJ-37" value="" style="ellipse;whiteSpace=wrap;html=1;aspect=fixed;" vertex="1" parent="1">
          <mxGeometry x="640" y="465" width="10" height="10" as="geometry" />
        </mxCell>
        <mxCell id="5RwMvg_xWtixHcQHssWJ-38" value="" style="ellipse;whiteSpace=wrap;html=1;aspect=fixed;" vertex="1" parent="1">
          <mxGeometry x="580" y="317" width="10" height="10" as="geometry" />
        </mxCell>
        <mxCell id="5RwMvg_xWtixHcQHssWJ-40" value="" style="endArrow=none;html=1;rounded=0;strokeWidth=2;entryX=0;entryY=0.5;entryDx=0;entryDy=0;" edge="1" parent="1" target="5RwMvg_xWtixHcQHssWJ-39">
          <mxGeometry width="50" height="50" relative="1" as="geometry">
            <mxPoint x="310" y="290" as="sourcePoint" />
            <mxPoint x="370" y="291" as="targetPoint" />
            <Array as="points" />
          </mxGeometry>
        </mxCell>
        <mxCell id="5RwMvg_xWtixHcQHssWJ-39" value="" style="ellipse;whiteSpace=wrap;html=1;aspect=fixed;" vertex="1" parent="1">
          <mxGeometry x="310" y="285" width="10" height="10" as="geometry" />
        </mxCell>
        <mxCell id="5RwMvg_xWtixHcQHssWJ-41" value="A&lt;sub style=&quot;font-size: 8px;&quot;&gt;13-1&lt;/sub&gt;" style="text;html=1;align=center;verticalAlign=middle;resizable=0;points=[];autosize=1;strokeColor=none;fillColor=none;fontSize=8;" vertex="1" parent="1">
          <mxGeometry x="45" y="215" width="40" height="30" as="geometry" />
        </mxCell>
        <mxCell id="5RwMvg_xWtixHcQHssWJ-42" value="&lt;font style=&quot;font-size: 8px;&quot;&gt;A&lt;sub&gt;14&lt;/sub&gt;&lt;/font&gt;" style="text;html=1;align=center;verticalAlign=middle;resizable=0;points=[];autosize=1;strokeColor=none;fillColor=none;" vertex="1" parent="1">
          <mxGeometry x="40" y="245" width="40" height="30" as="geometry" />
        </mxCell>
        <mxCell id="5RwMvg_xWtixHcQHssWJ-43" value="&lt;font style=&quot;font-size: 8px;&quot;&gt;A&lt;sub&gt;15&lt;/sub&gt;&lt;/font&gt;" style="text;html=1;align=center;verticalAlign=middle;resizable=0;points=[];autosize=1;strokeColor=none;fillColor=none;" vertex="1" parent="1">
          <mxGeometry x="40" y="280" width="40" height="30" as="geometry" />
        </mxCell>
        <mxCell id="5RwMvg_xWtixHcQHssWJ-44" value="" style="endArrow=none;html=1;rounded=0;entryX=0;entryY=0.5;entryDx=0;entryDy=0;" edge="1" parent="1" source="5RwMvg_xWtixHcQHssWJ-49" target="OPhM1rb45kpCFRoYdec_-23">
          <mxGeometry width="50" height="50" relative="1" as="geometry">
            <mxPoint x="340" y="600" as="sourcePoint" />
            <mxPoint x="290" y="440" as="targetPoint" />
            <Array as="points">
              <mxPoint x="340" y="310" />
            </Array>
          </mxGeometry>
        </mxCell>
        <mxCell id="5RwMvg_xWtixHcQHssWJ-46" value="" style="endArrow=none;html=1;rounded=0;strokeWidth=2;entryX=0;entryY=0.5;entryDx=0;entryDy=0;" edge="1" parent="1" source="FfAWD8UeeB69dAOk08Cy-24" target="5RwMvg_xWtixHcQHssWJ-45">
          <mxGeometry width="50" height="50" relative="1" as="geometry">
            <mxPoint x="100" y="280" as="sourcePoint" />
            <mxPoint x="130" y="280" as="targetPoint" />
            <Array as="points" />
          </mxGeometry>
        </mxCell>
        <mxCell id="5RwMvg_xWtixHcQHssWJ-45" value="" style="ellipse;whiteSpace=wrap;html=1;aspect=fixed;" vertex="1" parent="1">
          <mxGeometry x="120" y="275" width="10" height="10" as="geometry" />
        </mxCell>
        <mxCell id="FfAWD8UeeB69dAOk08Cy-34" value="" style="ellipse;whiteSpace=wrap;html=1;aspect=fixed;" parent="1" vertex="1">
          <mxGeometry x="100" y="275" width="10" height="10" as="geometry" />
        </mxCell>
        <mxCell id="5RwMvg_xWtixHcQHssWJ-48" value="" style="endArrow=none;html=1;rounded=0;strokeWidth=2;exitX=1;exitY=0.5;exitDx=0;exitDy=0;exitPerimeter=0;" edge="1" parent="1" source="5RwMvg_xWtixHcQHssWJ-39" target="5RwMvg_xWtixHcQHssWJ-47">
          <mxGeometry width="50" height="50" relative="1" as="geometry">
            <mxPoint x="320" y="290" as="sourcePoint" />
            <mxPoint x="340" y="290" as="targetPoint" />
            <Array as="points" />
          </mxGeometry>
        </mxCell>
        <mxCell id="5RwMvg_xWtixHcQHssWJ-47" value="" style="ellipse;whiteSpace=wrap;html=1;aspect=fixed;" vertex="1" parent="1">
          <mxGeometry x="360" y="285" width="10" height="10" as="geometry" />
        </mxCell>
        <mxCell id="5RwMvg_xWtixHcQHssWJ-50" value="" style="endArrow=none;html=1;rounded=0;" edge="1" parent="1">
          <mxGeometry width="50" height="50" relative="1" as="geometry">
            <mxPoint x="340" y="600" as="sourcePoint" />
            <mxPoint x="340" y="310" as="targetPoint" />
            <Array as="points" />
          </mxGeometry>
        </mxCell>
        <mxCell id="5RwMvg_xWtixHcQHssWJ-49" value="" style="ellipse;whiteSpace=wrap;html=1;aspect=fixed;" vertex="1" parent="1">
          <mxGeometry x="360" y="305" width="10" height="10" as="geometry" />
        </mxCell>
        <mxCell id="5RwMvg_xWtixHcQHssWJ-51" value="A&lt;sub style=&quot;font-size: 8px;&quot;&gt;13-1&lt;/sub&gt;" style="text;html=1;align=center;verticalAlign=middle;resizable=0;points=[];autosize=1;strokeColor=none;fillColor=none;fontSize=8;" vertex="1" parent="1">
          <mxGeometry x="255" y="215" width="40" height="30" as="geometry" />
        </mxCell>
        <mxCell id="5RwMvg_xWtixHcQHssWJ-52" value="A&lt;sub style=&quot;font-size: 8px;&quot;&gt;14&lt;/sub&gt;" style="text;html=1;align=center;verticalAlign=middle;resizable=0;points=[];autosize=1;strokeColor=none;fillColor=none;fontSize=8;" vertex="1" parent="1">
          <mxGeometry x="250" y="258" width="40" height="30" as="geometry" />
        </mxCell>
        <mxCell id="5RwMvg_xWtixHcQHssWJ-53" value="A&lt;font style=&quot;font-size: 8px;&quot;&gt;&lt;sub style=&quot;font-size: 8px;&quot;&gt;15&lt;/sub&gt;&lt;/font&gt;" style="text;html=1;align=center;verticalAlign=middle;resizable=0;points=[];autosize=1;strokeColor=none;fillColor=none;fontSize=8;" vertex="1" parent="1">
          <mxGeometry x="250" y="296.5" width="40" height="30" as="geometry" />
        </mxCell>
      </root>
    </mxGraphModel>
  </diagram>
</mxfile>
